<svg width="30" height="30" viewBox="0 0 30 30" fill="none" xmlns="http://www.w3.org/2000/svg">
<g clip-path="url(#clip0_79_57)">
<path d="M29.1459 27.4374L21.9334 20.2248C23.8989 17.821 24.8653 14.7536 24.6326 11.6572C24.4 8.56081 22.9861 5.67229 20.6835 3.58911C18.3808 1.50593 15.3656 0.387475 12.2615 0.465089C9.15732 0.542702 6.20175 1.81045 4.0061 4.0061C1.81045 6.20175 0.542702 9.15732 0.465089 12.2615C0.387475 15.3656 1.50593 18.3808 3.58911 20.6835C5.67229 22.9861 8.56081 24.4 11.6572 24.6326C14.7536 24.8653 17.821 23.8989 20.2248 21.9334L27.4374 29.1459C27.6653 29.366 27.9705 29.4878 28.2873 29.4851C28.6041 29.4823 28.9072 29.3553 29.1312 29.1312C29.3553 28.9072 29.4823 28.6041 29.4851 28.2873C29.4878 27.9705 29.366 27.6653 29.1459 27.4374ZM12.5833 22.25C10.6714 22.25 8.80248 21.683 7.2128 20.6209C5.62313 19.5587 4.38413 18.0489 3.65248 16.2826C2.92083 14.5162 2.7294 12.5726 3.10239 10.6974C3.47538 8.82229 4.39604 7.09986 5.74795 5.74795C7.09986 4.39604 8.82229 3.47538 10.6974 3.10239C12.5726 2.7294 14.5162 2.92083 16.2826 3.65248C18.0489 4.38413 19.5587 5.62313 20.6209 7.2128C21.683 8.80248 22.25 10.6714 22.25 12.5833C22.2471 15.1462 21.2277 17.6033 19.4155 19.4155C17.6033 21.2277 15.1462 22.2471 12.5833 22.25Z" fill="black" fill-opacity="0.57"/>
</g>
<defs>
<clipPath id="clip0_79_57">
<rect width="29" height="29" fill="white" transform="translate(0.5 0.5)"/>
</clipPath>
</defs>
</svg>
