<svg width="39" height="38" viewBox="0 0 39 38" fill="none" xmlns="http://www.w3.org/2000/svg">
<g clip-path="url(#clip0_79_54)">
<path d="M36.9167 30.0834H33.75V26.9167C33.75 26.4968 33.5832 26.0941 33.2863 25.7971C32.9894 25.5002 32.5866 25.3334 32.1667 25.3334C31.7468 25.3334 31.3441 25.5002 31.0471 25.7971C30.7502 26.0941 30.5834 26.4968 30.5834 26.9167V30.0834H27.4167C26.9968 30.0834 26.5941 30.2502 26.2971 30.5471C26.0002 30.8441 25.8334 31.2468 25.8334 31.6667C25.8334 32.0866 26.0002 32.4894 26.2971 32.7863C26.5941 33.0832 26.9968 33.25 27.4167 33.25H30.5834V36.4167C30.5834 36.8366 30.7502 37.2394 31.0471 37.5363C31.3441 37.8332 31.7468 38 32.1667 38C32.5866 38 32.9894 37.8332 33.2863 37.5363C33.5832 37.2394 33.75 36.8366 33.75 36.4167V33.25H36.9167C37.3366 33.25 37.7394 33.0832 38.0363 32.7863C38.3332 32.4894 38.5 32.0866 38.5 31.6667C38.5 31.2468 38.3332 30.8441 38.0363 30.5471C37.7394 30.2502 37.3366 30.0834 36.9167 30.0834Z" fill="#242121" fill-opacity="0.9"/>
<path d="M33.75 9.5H29C29 6.98044 27.9991 4.56408 26.2175 2.78249C24.4359 1.00089 22.0196 0 19.5 0C16.9804 0 14.5641 1.00089 12.7825 2.78249C11.0009 4.56408 10 6.98044 10 9.5H5.25C3.99022 9.5 2.78204 10.0004 1.89124 10.8912C1.00044 11.782 0.5 12.9902 0.5 14.25L0.5 30.0833C0.502514 32.1822 1.3374 34.1944 2.82151 35.6785C4.30563 37.1626 6.31781 37.9975 8.41667 38H22.6667C23.0866 38 23.4893 37.8332 23.7863 37.5363C24.0832 37.2393 24.25 36.8366 24.25 36.4167C24.25 35.9967 24.0832 35.594 23.7863 35.2971C23.4893 35.0001 23.0866 34.8333 22.6667 34.8333H8.41667C7.15689 34.8333 5.94871 34.3329 5.05791 33.4421C4.16711 32.5513 3.66667 31.3431 3.66667 30.0833V14.25C3.66667 13.8301 3.83348 13.4273 4.13041 13.1304C4.42735 12.8335 4.83007 12.6667 5.25 12.6667H10V15.8333C10 16.2533 10.1668 16.656 10.4637 16.9529C10.7607 17.2499 11.1634 17.4167 11.5833 17.4167C12.0033 17.4167 12.406 17.2499 12.7029 16.9529C12.9999 16.656 13.1667 16.2533 13.1667 15.8333V12.6667H25.8333V15.8333C25.8333 16.2533 26.0001 16.656 26.2971 16.9529C26.594 17.2499 26.9967 17.4167 27.4167 17.4167C27.8366 17.4167 28.2393 17.2499 28.5363 16.9529C28.8332 16.656 29 16.2533 29 15.8333V12.6667H33.75C34.1699 12.6667 34.5727 12.8335 34.8696 13.1304C35.1665 13.4273 35.3333 13.8301 35.3333 14.25V22.1667C35.3333 22.5866 35.5001 22.9893 35.7971 23.2863C36.094 23.5832 36.4967 23.75 36.9167 23.75C37.3366 23.75 37.7393 23.5832 38.0363 23.2863C38.3332 22.9893 38.5 22.5866 38.5 22.1667V14.25C38.5 12.9902 37.9996 11.782 37.1088 10.8912C36.218 10.0004 35.0098 9.5 33.75 9.5ZM13.1667 9.5C13.1667 7.8203 13.8339 6.20939 15.0217 5.02166C16.2094 3.83393 17.8203 3.16667 19.5 3.16667C21.1797 3.16667 22.7906 3.83393 23.9783 5.02166C25.1661 6.20939 25.8333 7.8203 25.8333 9.5H13.1667Z" fill="#242121" fill-opacity="0.9"/>
</g>
<defs>
<clipPath id="clip0_79_54">
<rect width="38" height="38" fill="white" transform="translate(0.5)"/>
</clipPath>
</defs>
</svg>
