<?xml version="1.0" encoding="UTF-8"?>
<svg xmlns="http://www.w3.org/2000/svg" xmlns:xlink="http://www.w3.org/1999/xlink" width="16px" height="9px" viewBox="0 0 16 9" version="1.1">
<g id="surface1">
<path style=" stroke:none;fill-rule:nonzero;fill:rgb(99.607843%,99.607843%,99.607843%);fill-opacity:1;" d="M 7.921875 6.105469 C 8.046875 6.109375 8.175781 6.105469 8.300781 6.105469 C 8.878906 6.105469 9.441406 6.144531 10.015625 6.214844 C 10.117188 6.226562 10.21875 6.234375 10.320312 6.246094 C 10.988281 6.324219 11.640625 6.46875 12.289062 6.636719 C 12.386719 6.664062 12.484375 6.6875 12.578125 6.710938 C 12.917969 6.796875 13.242188 6.890625 13.566406 7.015625 C 13.617188 7.03125 13.664062 7.050781 13.714844 7.066406 C 13.988281 7.167969 14.261719 7.269531 14.527344 7.394531 C 14.632812 7.433594 14.734375 7.449219 14.847656 7.460938 C 14.847656 7.484375 14.847656 7.503906 14.847656 7.527344 C 14.878906 7.535156 14.910156 7.546875 14.941406 7.554688 C 15.039062 7.589844 15.039062 7.589844 15.070312 7.65625 C 15.136719 7.675781 15.199219 7.699219 15.265625 7.71875 C 15.335938 7.753906 15.410156 7.789062 15.480469 7.828125 C 15.515625 7.84375 15.550781 7.863281 15.589844 7.882812 C 15.679688 7.941406 15.710938 7.972656 15.742188 8.070312 C 15.664062 8.21875 15.539062 8.246094 15.390625 8.296875 C 15.339844 8.3125 15.289062 8.328125 15.242188 8.34375 C 15.21875 8.351562 15.191406 8.359375 15.167969 8.371094 C 15.09375 8.394531 15.015625 8.425781 14.941406 8.457031 C 14.917969 8.464844 14.894531 8.476562 14.867188 8.484375 C 14.820312 8.503906 14.773438 8.523438 14.726562 8.542969 C 14.660156 8.570312 14.59375 8.597656 14.527344 8.625 C 14.496094 8.636719 14.496094 8.636719 14.464844 8.648438 C 14.257812 8.730469 14.0625 8.75 13.851562 8.664062 C 13.808594 8.640625 13.765625 8.621094 13.722656 8.597656 C 13.699219 8.585938 13.675781 8.574219 13.652344 8.5625 C 13.542969 8.507812 13.4375 8.453125 13.332031 8.398438 C 12.808594 8.128906 12.253906 7.929688 11.6875 7.769531 C 11.621094 7.753906 11.558594 7.734375 11.492188 7.714844 C 11.074219 7.589844 10.652344 7.511719 10.222656 7.4375 C 10.148438 7.425781 10.074219 7.414062 10 7.402344 C 9.410156 7.300781 8.824219 7.296875 8.226562 7.296875 C 8.140625 7.296875 8.054688 7.296875 7.96875 7.296875 C 7.074219 7.296875 7.074219 7.296875 6.1875 7.394531 C 6.136719 7.402344 6.136719 7.402344 6.085938 7.410156 C 5.824219 7.457031 5.566406 7.503906 5.3125 7.558594 C 5.289062 7.5625 5.265625 7.570312 5.242188 7.574219 C 5.164062 7.589844 5.089844 7.605469 5.015625 7.621094 C 4.992188 7.628906 4.96875 7.632812 4.945312 7.636719 C 4.085938 7.828125 3.222656 8.160156 2.449219 8.578125 C 2.183594 8.722656 2.015625 8.75 1.722656 8.667969 C 1.636719 8.644531 1.558594 8.609375 1.480469 8.570312 C 1.359375 8.511719 1.238281 8.46875 1.113281 8.425781 C 0.511719 8.21875 0.511719 8.21875 0.4375 8.097656 C 0.429688 8.078125 0.421875 8.058594 0.414062 8.039062 C 0.566406 7.855469 0.765625 7.777344 0.972656 7.679688 C 1.011719 7.660156 1.050781 7.640625 1.089844 7.625 C 1.882812 7.25 2.710938 6.933594 3.5625 6.714844 C 3.628906 6.699219 3.691406 6.683594 3.757812 6.664062 C 4.582031 6.449219 5.398438 6.273438 6.246094 6.191406 C 6.335938 6.183594 6.425781 6.175781 6.515625 6.164062 C 6.984375 6.113281 7.449219 6.105469 7.921875 6.105469 Z M 7.921875 6.105469 "/>
<path style=" stroke:none;fill-rule:nonzero;fill:rgb(99.215686%,99.215686%,99.215686%);fill-opacity:1;" d="M 9.164062 0.769531 C 9.25 0.792969 9.335938 0.8125 9.421875 0.835938 C 9.722656 0.910156 10.027344 0.988281 10.324219 1.078125 C 10.375 1.089844 10.375 1.089844 10.421875 1.105469 C 10.933594 1.253906 10.933594 1.253906 11.121094 1.34375 C 11.214844 1.386719 11.308594 1.425781 11.40625 1.457031 C 11.6875 1.546875 11.949219 1.667969 12.210938 1.804688 C 12.285156 1.839844 12.355469 1.875 12.429688 1.90625 C 12.550781 1.957031 12.664062 2.015625 12.777344 2.082031 C 12.796875 2.09375 12.816406 2.105469 12.835938 2.113281 C 12.933594 2.171875 13.011719 2.222656 13.089844 2.304688 C 13.109375 2.320312 13.132812 2.332031 13.15625 2.347656 C 13.386719 2.488281 13.5625 2.660156 13.664062 2.914062 C 13.683594 3 13.691406 3.082031 13.695312 3.171875 C 13.707031 3.214844 13.714844 3.257812 13.726562 3.300781 C 13.792969 3.570312 13.832031 3.847656 13.871094 4.125 C 13.875 4.152344 13.878906 4.175781 13.882812 4.203125 C 13.988281 4.964844 14.023438 5.730469 14.046875 6.5 C 13.878906 6.453125 13.714844 6.402344 13.550781 6.339844 C 13.417969 6.289062 13.289062 6.257812 13.152344 6.230469 C 13.089844 6.214844 13.089844 6.214844 12.980469 6.164062 C 12.851562 6.113281 12.730469 6.09375 12.597656 6.070312 C 12.484375 6.046875 12.390625 6 12.289062 5.957031 C 12.203125 5.9375 12.117188 5.925781 12.03125 5.910156 C 11.929688 5.890625 11.828125 5.871094 11.726562 5.84375 C 11.367188 5.761719 11 5.707031 10.632812 5.648438 C 10.566406 5.636719 10.5 5.628906 10.433594 5.617188 C 10.398438 5.609375 10.363281 5.605469 10.324219 5.597656 C 10.296875 5.59375 10.265625 5.589844 10.230469 5.582031 C 10.140625 5.570312 10.140625 5.570312 10.039062 5.574219 C 9.953125 5.574219 9.953125 5.574219 9.921875 5.539062 C 9.851562 5.535156 9.785156 5.527344 9.71875 5.523438 C 9.675781 5.523438 9.632812 5.519531 9.589844 5.515625 C 9.546875 5.515625 9.5 5.511719 9.457031 5.507812 C 8.929688 5.476562 8.929688 5.476562 8.671875 5.445312 C 8.628906 5.339844 8.585938 5.234375 8.542969 5.125 C 8.523438 5.125 8.5 5.125 8.480469 5.125 C 8.425781 5.1875 8.425781 5.1875 8.382812 5.253906 C 8.351562 5.242188 8.320312 5.230469 8.289062 5.21875 C 8.289062 4.949219 8.285156 4.679688 8.285156 4.410156 C 8.285156 4.285156 8.285156 4.160156 8.285156 4.03125 C 8.285156 3.910156 8.285156 3.789062 8.285156 3.667969 C 8.285156 3.625 8.285156 3.578125 8.285156 3.53125 C 8.285156 3.464844 8.285156 3.402344 8.285156 3.335938 C 8.285156 3.300781 8.285156 3.261719 8.285156 3.226562 C 8.289062 3.140625 8.289062 3.140625 8.320312 3.074219 C 8.324219 3.007812 8.324219 2.941406 8.320312 2.875 C 8.320312 2.832031 8.320312 2.792969 8.320312 2.75 C 8.320312 2.710938 8.320312 2.667969 8.320312 2.625 C 8.320312 2.542969 8.320312 2.457031 8.316406 2.375 C 8.316406 2.339844 8.316406 2.300781 8.316406 2.261719 C 8.320312 2.179688 8.320312 2.179688 8.351562 2.144531 C 8.355469 2.046875 8.359375 1.949219 8.363281 1.847656 C 8.363281 1.820312 8.363281 1.789062 8.363281 1.757812 C 8.367188 1.664062 8.367188 1.566406 8.371094 1.472656 C 8.371094 1.40625 8.371094 1.34375 8.375 1.277344 C 8.378906 1.117188 8.382812 0.960938 8.382812 0.800781 C 8.429688 0.785156 8.476562 0.769531 8.519531 0.753906 C 8.546875 0.746094 8.574219 0.734375 8.597656 0.726562 C 8.796875 0.667969 8.96875 0.71875 9.164062 0.769531 Z M 9.003906 1.179688 C 8.894531 1.328125 8.90625 1.457031 8.910156 1.636719 C 8.910156 1.671875 8.910156 1.710938 8.910156 1.746094 C 8.910156 1.863281 8.910156 1.984375 8.914062 2.101562 C 8.914062 2.183594 8.914062 2.265625 8.914062 2.347656 C 8.914062 2.542969 8.914062 2.738281 8.917969 2.933594 C 8.917969 3.15625 8.917969 3.375 8.921875 3.597656 C 8.921875 4.054688 8.925781 4.507812 8.929688 4.964844 C 9.027344 4.980469 9.128906 4.996094 9.230469 5.011719 C 9.273438 5.019531 9.273438 5.019531 9.316406 5.023438 C 9.570312 5.0625 9.824219 5.082031 10.078125 5.09375 C 10.078125 4.859375 10.074219 4.621094 10.070312 4.386719 C 10.066406 4.277344 10.066406 4.171875 10.0625 4.0625 C 10.054688 3.550781 10.042969 3.039062 10.015625 2.53125 C 10.039062 2.53125 10.058594 2.53125 10.078125 2.53125 C 10.097656 2.589844 10.097656 2.589844 10.117188 2.648438 C 10.207031 2.914062 10.300781 3.175781 10.429688 3.425781 C 10.488281 3.539062 10.535156 3.660156 10.585938 3.777344 C 10.613281 3.847656 10.640625 3.914062 10.667969 3.980469 C 10.71875 4.09375 10.761719 4.203125 10.804688 4.316406 C 10.828125 4.371094 10.851562 4.425781 10.871094 4.480469 C 10.929688 4.621094 10.984375 4.761719 11.023438 4.910156 C 11.09375 5.148438 11.09375 5.148438 11.230469 5.347656 C 11.449219 5.460938 11.695312 5.488281 11.9375 5.507812 C 11.996094 5.410156 12.042969 5.324219 12.070312 5.214844 C 12.117188 5.058594 12.171875 4.910156 12.230469 4.757812 C 12.34375 4.476562 12.449219 4.195312 12.550781 3.910156 C 12.578125 3.839844 12.605469 3.773438 12.628906 3.703125 C 12.675781 3.597656 12.675781 3.597656 12.671875 3.523438 C 12.691406 3.523438 12.714844 3.523438 12.734375 3.523438 C 12.738281 3.546875 12.738281 3.574219 12.742188 3.597656 C 12.78125 4.320312 12.835938 5.042969 12.894531 5.765625 C 12.988281 5.796875 13.082031 5.832031 13.175781 5.863281 C 13.214844 5.878906 13.214844 5.878906 13.257812 5.890625 C 13.292969 5.90625 13.292969 5.90625 13.332031 5.917969 C 13.355469 5.925781 13.378906 5.933594 13.40625 5.941406 C 13.480469 5.960938 13.527344 5.949219 13.601562 5.925781 C 13.601562 5.902344 13.601562 5.882812 13.601562 5.859375 C 13.601562 5.828125 13.601562 5.796875 13.601562 5.765625 C 13.613281 5.058594 13.550781 4.351562 13.472656 3.648438 C 13.46875 3.625 13.464844 3.601562 13.464844 3.578125 C 13.457031 3.507812 13.449219 3.4375 13.441406 3.371094 C 13.433594 3.3125 13.433594 3.3125 13.425781 3.25 C 13.394531 3.027344 13.394531 3.027344 13.277344 2.84375 C 13.160156 2.769531 13.035156 2.710938 12.90625 2.65625 C 12.859375 2.632812 12.8125 2.609375 12.761719 2.589844 C 12.742188 2.578125 12.71875 2.570312 12.699219 2.558594 C 12.640625 2.53125 12.640625 2.53125 12.542969 2.464844 C 12.46875 2.464844 12.394531 2.464844 12.320312 2.464844 C 12.179688 2.734375 12.066406 3.007812 11.960938 3.292969 C 11.664062 4.09375 11.664062 4.09375 11.550781 4.261719 C 11.425781 3.980469 11.308594 3.699219 11.203125 3.410156 C 11.164062 3.304688 11.125 3.203125 11.070312 3.105469 C 11.007812 2.988281 10.964844 2.867188 10.921875 2.742188 C 10.839844 2.519531 10.746094 2.304688 10.648438 2.089844 C 10.632812 2.058594 10.632812 2.058594 10.617188 2.023438 C 10.609375 2 10.597656 1.980469 10.585938 1.957031 C 10.558594 1.890625 10.558594 1.890625 10.539062 1.820312 C 10.492188 1.65625 10.429688 1.589844 10.28125 1.507812 C 10.160156 1.449219 10.035156 1.402344 9.90625 1.355469 C 9.882812 1.347656 9.855469 1.339844 9.828125 1.328125 C 9.644531 1.265625 9.464844 1.203125 9.28125 1.152344 C 9.246094 1.140625 9.210938 1.132812 9.175781 1.121094 C 9.082031 1.113281 9.082031 1.113281 9.003906 1.179688 Z M 9.003906 1.179688 "/>
<path style=" stroke:none;fill-rule:nonzero;fill:rgb(99.215686%,99.215686%,99.215686%);fill-opacity:1;" d="M 7.488281 0.703125 C 7.554688 0.734375 7.554688 0.734375 7.617188 0.769531 C 7.667969 0.78125 7.722656 0.789062 7.777344 0.800781 C 7.777344 0.832031 7.777344 0.863281 7.777344 0.898438 C 7.78125 1.019531 7.785156 1.136719 7.789062 1.257812 C 7.789062 1.308594 7.789062 1.363281 7.792969 1.414062 C 7.792969 1.488281 7.796875 1.5625 7.796875 1.640625 C 7.796875 1.671875 7.796875 1.671875 7.800781 1.707031 C 7.804688 1.835938 7.8125 1.960938 7.824219 2.089844 C 7.851562 2.386719 7.84375 2.6875 7.84375 2.988281 C 7.84375 3.054688 7.84375 3.121094 7.84375 3.183594 C 7.84375 3.355469 7.84375 3.527344 7.84375 3.699219 C 7.84375 3.875 7.839844 4.046875 7.839844 4.222656 C 7.839844 4.566406 7.839844 4.910156 7.839844 5.253906 C 7.777344 5.199219 7.714844 5.148438 7.648438 5.09375 C 7.574219 5.207031 7.527344 5.316406 7.488281 5.445312 C 7.464844 5.445312 7.441406 5.449219 7.414062 5.449219 C 7.304688 5.457031 7.191406 5.464844 7.078125 5.476562 C 7.042969 5.476562 7.003906 5.480469 6.964844 5.484375 C 6.851562 5.492188 6.738281 5.5 6.625 5.507812 C 6.570312 5.511719 6.570312 5.511719 6.511719 5.515625 C 6.476562 5.519531 6.441406 5.523438 6.40625 5.523438 C 6.375 5.527344 6.347656 5.53125 6.3125 5.53125 C 6.238281 5.535156 6.238281 5.535156 6.175781 5.574219 C 6.117188 5.578125 6.0625 5.582031 6.003906 5.585938 C 5.804688 5.601562 5.609375 5.628906 5.410156 5.664062 C 5.375 5.667969 5.339844 5.675781 5.304688 5.679688 C 4.757812 5.769531 4.21875 5.878906 3.679688 6.019531 C 3.640625 6.03125 3.640625 6.03125 3.605469 6.042969 C 3.0625 6.183594 3.0625 6.183594 2.539062 6.378906 C 2.414062 6.421875 2.335938 6.402344 2.207031 6.375 C 2.140625 6.308594 2.113281 6.269531 2.109375 6.175781 C 2.113281 6.148438 2.117188 6.125 2.121094 6.097656 C 2.140625 5.933594 2.144531 5.777344 2.144531 5.613281 C 2.140625 5.277344 2.152344 4.945312 2.207031 4.613281 C 2.214844 4.558594 2.21875 4.503906 2.222656 4.449219 C 2.25 4.175781 2.25 4.175781 2.304688 4.066406 C 2.3125 3.984375 2.324219 3.898438 2.332031 3.816406 C 2.355469 3.613281 2.386719 3.421875 2.441406 3.222656 C 2.460938 3.144531 2.476562 3.066406 2.492188 2.988281 C 2.554688 2.699219 2.699219 2.527344 2.945312 2.371094 C 2.988281 2.339844 2.988281 2.339844 3.03125 2.3125 C 3.449219 2.035156 3.894531 1.808594 4.351562 1.601562 C 4.378906 1.589844 4.402344 1.578125 4.429688 1.566406 C 4.550781 1.511719 4.667969 1.460938 4.796875 1.425781 C 4.9375 1.386719 5.070312 1.335938 5.203125 1.28125 C 5.371094 1.210938 5.546875 1.160156 5.722656 1.109375 C 5.746094 1.101562 5.769531 1.09375 5.796875 1.089844 C 6 1.027344 6.207031 0.976562 6.417969 0.925781 C 6.527344 0.898438 6.527344 0.898438 6.625 0.863281 C 6.738281 0.828125 6.851562 0.804688 6.96875 0.78125 C 7.40625 0.699219 7.40625 0.699219 7.488281 0.703125 Z M 4.097656 2.050781 C 4.0625 2.066406 4.03125 2.082031 3.996094 2.097656 C 3.828125 2.179688 3.671875 2.261719 3.519531 2.371094 C 3.488281 2.386719 3.460938 2.40625 3.429688 2.421875 C 3.40625 2.4375 3.382812 2.453125 3.359375 2.464844 C 3.359375 2.488281 3.359375 2.507812 3.359375 2.53125 C 3.339844 2.539062 3.320312 2.546875 3.300781 2.554688 C 3.230469 2.59375 3.1875 2.628906 3.136719 2.691406 C 3.136719 2.710938 3.136719 2.734375 3.136719 2.753906 C 3.113281 2.753906 3.09375 2.753906 3.070312 2.753906 C 2.796875 3.117188 2.726562 3.570312 2.679688 4.011719 C 2.675781 4.035156 2.671875 4.058594 2.671875 4.082031 C 2.554688 4.859375 2.554688 4.859375 2.785156 5.585938 C 2.96875 5.746094 3.160156 5.773438 3.398438 5.761719 C 3.589844 5.742188 3.78125 5.710938 3.96875 5.675781 C 4 5.671875 4.03125 5.667969 4.0625 5.660156 C 4.375 5.601562 4.6875 5.535156 5 5.464844 C 5.09375 5.441406 5.1875 5.421875 5.285156 5.402344 C 6.113281 5.222656 6.113281 5.222656 6.878906 4.867188 C 6.878906 4.847656 6.878906 4.824219 6.878906 4.804688 C 6.90625 4.796875 6.929688 4.789062 6.953125 4.78125 C 7.117188 4.703125 7.195312 4.539062 7.265625 4.378906 C 7.382812 4.050781 7.363281 3.707031 7.359375 3.363281 C 7.230469 3.382812 7.101562 3.402344 6.972656 3.425781 C 6.929688 3.429688 6.886719 3.4375 6.839844 3.445312 C 6.546875 3.492188 6.265625 3.554688 5.984375 3.652344 C 5.980469 3.679688 5.976562 3.707031 5.972656 3.734375 C 5.957031 3.882812 5.941406 4.003906 5.859375 4.132812 C 5.414062 4.421875 4.75 4.527344 4.234375 4.617188 C 4.199219 4.621094 4.199219 4.621094 4.160156 4.628906 C 3.988281 4.65625 3.894531 4.625 3.742188 4.546875 C 3.699219 4.042969 3.6875 3.554688 3.871094 3.074219 C 3.925781 3.039062 3.925781 3.039062 4 3.011719 C 4.042969 2.976562 4.042969 2.976562 4.089844 2.9375 C 4.441406 2.683594 4.925781 2.582031 5.34375 2.488281 C 5.417969 2.472656 5.488281 2.449219 5.5625 2.425781 C 5.699219 2.394531 5.785156 2.421875 5.921875 2.464844 C 5.9375 2.625 5.9375 2.625 5.953125 2.785156 C 6.132812 2.769531 6.300781 2.730469 6.476562 2.679688 C 6.578125 2.652344 6.679688 2.640625 6.785156 2.625 C 6.859375 2.609375 6.929688 2.589844 7.003906 2.5625 C 7.109375 2.527344 7.214844 2.511719 7.328125 2.5 C 7.339844 2.148438 7.328125 1.847656 7.183594 1.523438 C 7.027344 1.363281 6.832031 1.304688 6.613281 1.296875 C 5.773438 1.328125 4.839844 1.679688 4.097656 2.050781 Z M 4.097656 2.050781 "/>
<path style=" stroke:none;fill-rule:nonzero;fill:rgb(98.823529%,98.823529%,98.823529%);fill-opacity:1;" d="M 8.480469 0.160156 C 8.507812 0.160156 8.539062 0.164062 8.570312 0.164062 C 9.183594 0.199219 9.753906 0.394531 10.335938 0.585938 C 10.433594 0.617188 10.53125 0.648438 10.628906 0.683594 C 10.972656 0.792969 11.3125 0.914062 11.648438 1.058594 C 11.6875 1.074219 11.6875 1.074219 11.726562 1.089844 C 12.058594 1.230469 12.386719 1.367188 12.703125 1.539062 C 12.738281 1.554688 12.773438 1.574219 12.8125 1.59375 C 13.339844 1.882812 13.867188 2.25 14.050781 2.84375 C 14.148438 3.179688 14.195312 3.53125 14.238281 3.875 C 14.242188 3.902344 14.246094 3.925781 14.25 3.953125 C 14.285156 4.273438 14.277344 4.601562 14.273438 4.921875 C 14.273438 4.984375 14.273438 5.046875 14.273438 5.113281 C 14.273438 5.265625 14.273438 5.417969 14.273438 5.574219 C 14.25 5.574219 14.230469 5.574219 14.207031 5.574219 C 14.203125 5.539062 14.199219 5.503906 14.195312 5.46875 C 14.183594 5.339844 14.167969 5.210938 14.15625 5.082031 C 14.148438 5.027344 14.144531 4.972656 14.136719 4.917969 C 14.128906 4.835938 14.121094 4.757812 14.109375 4.679688 C 14.109375 4.652344 14.105469 4.628906 14.101562 4.601562 C 14.089844 4.476562 14.089844 4.476562 14.046875 4.355469 C 14.039062 4.273438 14.03125 4.191406 14.023438 4.109375 C 14.019531 4.035156 14.019531 4.035156 13.984375 3.972656 C 13.976562 3.90625 13.972656 3.84375 13.96875 3.777344 C 13.957031 3.605469 13.941406 3.4375 13.921875 3.265625 C 13.898438 3.265625 13.878906 3.265625 13.855469 3.265625 C 13.855469 3.25 13.855469 3.230469 13.855469 3.210938 C 13.835938 2.90625 13.746094 2.601562 13.511719 2.394531 C 13.242188 2.1875 12.960938 1.972656 12.640625 1.859375 C 12.640625 1.835938 12.640625 1.816406 12.640625 1.792969 C 12.601562 1.78125 12.601562 1.78125 12.5625 1.769531 C 12.425781 1.722656 12.296875 1.65625 12.164062 1.59375 C 11.902344 1.464844 11.636719 1.363281 11.359375 1.269531 C 11.261719 1.238281 11.164062 1.203125 11.070312 1.167969 C 10.621094 1.007812 10.164062 0.867188 9.703125 0.753906 C 9.625 0.734375 9.550781 0.714844 9.472656 0.695312 C 8.996094 0.558594 8.996094 0.558594 8.511719 0.609375 C 8.445312 0.570312 8.445312 0.570312 8.378906 0.515625 C 8.355469 0.496094 8.332031 0.476562 8.308594 0.460938 C 8.292969 0.445312 8.273438 0.429688 8.257812 0.417969 C 8.253906 0.460938 8.253906 0.460938 8.253906 0.503906 C 8.25 0.636719 8.246094 0.769531 8.242188 0.90625 C 8.242188 0.929688 8.242188 0.953125 8.238281 0.976562 C 8.230469 1.289062 8.21875 1.601562 8.203125 1.910156 C 8.191406 2.085938 8.191406 2.257812 8.191406 2.433594 C 8.148438 2.445312 8.109375 2.457031 8.0625 2.464844 C 8.042969 2.433594 8.023438 2.402344 8 2.371094 C 7.988281 2.371094 7.980469 2.371094 7.96875 2.371094 C 7.96875 2.328125 7.96875 2.328125 7.96875 2.285156 C 7.972656 2.0625 7.964844 1.84375 7.945312 1.625 C 7.914062 1.230469 7.898438 0.839844 7.902344 0.449219 C 7.875 0.46875 7.847656 0.492188 7.820312 0.511719 C 7.695312 0.585938 7.652344 0.585938 7.511719 0.574219 C 7.128906 0.5625 6.765625 0.675781 6.398438 0.769531 C 6.351562 0.78125 6.304688 0.792969 6.257812 0.804688 C 5.4375 1.015625 4.609375 1.289062 3.855469 1.671875 C 3.785156 1.707031 3.714844 1.742188 3.644531 1.777344 C 3.152344 2.015625 2.566406 2.328125 2.363281 2.863281 C 2.332031 2.964844 2.316406 3.0625 2.3125 3.167969 C 2.304688 3.234375 2.304688 3.234375 2.273438 3.300781 C 2.230469 3.421875 2.210938 3.542969 2.191406 3.671875 C 2.1875 3.695312 2.183594 3.722656 2.179688 3.75 C 2.171875 3.808594 2.160156 3.863281 2.152344 3.917969 C 2.140625 4.003906 2.125 4.089844 2.113281 4.175781 C 2.074219 4.433594 2.035156 4.6875 2.046875 4.953125 C 2.046875 5.054688 2.027344 5.148438 2 5.25 C 1.972656 5.355469 1.964844 5.464844 1.953125 5.574219 C 1.929688 5.574219 1.910156 5.574219 1.886719 5.574219 C 1.886719 5.367188 1.886719 5.160156 1.882812 4.953125 C 1.882812 4.882812 1.882812 4.8125 1.882812 4.742188 C 1.878906 4.371094 1.878906 4.015625 1.953125 3.652344 C 1.960938 3.589844 1.972656 3.53125 1.980469 3.472656 C 2.148438 2.484375 2.148438 2.484375 2.46875 2.21875 C 2.558594 2.144531 2.558594 2.144531 2.625 2.050781 C 2.675781 2.015625 2.730469 1.984375 2.785156 1.953125 C 2.824219 1.929688 2.863281 1.902344 2.902344 1.875 C 3.203125 1.675781 3.507812 1.496094 3.839844 1.34375 C 3.859375 1.335938 3.878906 1.328125 3.898438 1.316406 C 4.597656 0.996094 5.320312 0.742188 6.046875 0.511719 C 6.085938 0.5 6.125 0.488281 6.164062 0.476562 C 6.933594 0.234375 7.675781 0.121094 8.480469 0.160156 Z M 8.128906 2.242188 C 8.160156 2.371094 8.160156 2.371094 8.160156 2.371094 Z M 8.128906 2.242188 "/>
<path style=" stroke:none;fill-rule:nonzero;fill:rgb(98.823529%,98.823529%,98.823529%);fill-opacity:1;" d="M 7.679688 5.445312 C 7.742188 5.445312 7.742188 5.445312 7.824219 5.523438 C 7.863281 5.5625 7.863281 5.5625 7.902344 5.605469 C 7.953125 5.65625 8 5.648438 8.066406 5.652344 C 8.195312 5.652344 8.253906 5.625 8.347656 5.539062 C 8.363281 5.519531 8.382812 5.503906 8.398438 5.484375 C 8.414062 5.472656 8.429688 5.457031 8.449219 5.445312 C 8.480469 5.457031 8.511719 5.464844 8.542969 5.476562 C 8.566406 5.539062 8.566406 5.539062 8.574219 5.605469 C 8.566406 5.617188 8.554688 5.625 8.542969 5.636719 C 8.585938 5.636719 8.585938 5.636719 8.632812 5.632812 C 8.972656 5.628906 9.304688 5.65625 9.644531 5.691406 C 9.726562 5.699219 9.804688 5.707031 9.886719 5.714844 C 10.257812 5.746094 10.617188 5.804688 10.984375 5.875 C 11.070312 5.894531 11.160156 5.910156 11.25 5.925781 C 11.644531 5.992188 12.03125 6.078125 12.414062 6.179688 C 12.441406 6.1875 12.464844 6.195312 12.488281 6.199219 C 13.378906 6.433594 14.253906 6.753906 15.070312 7.175781 C 15.050781 7.195312 15.03125 7.214844 15.007812 7.238281 C 14.976562 7.226562 14.949219 7.214844 14.917969 7.199219 C 13.996094 6.824219 12.980469 6.515625 12 6.339844 C 11.921875 6.328125 11.847656 6.3125 11.769531 6.296875 C 11.730469 6.289062 11.691406 6.28125 11.648438 6.273438 C 11.558594 6.253906 11.46875 6.234375 11.378906 6.214844 C 10.984375 6.128906 10.589844 6.082031 10.1875 6.042969 C 10.039062 6.027344 9.894531 6.007812 9.746094 5.984375 C 9.570312 5.957031 9.394531 5.949219 9.214844 5.941406 C 9.1875 5.9375 9.15625 5.9375 9.125 5.9375 C 8.78125 5.921875 8.441406 5.917969 8.101562 5.917969 C 8.050781 5.917969 8.050781 5.917969 8 5.917969 C 7.230469 5.921875 6.464844 5.949219 5.703125 6.074219 C 5.589844 6.09375 5.476562 6.105469 5.363281 6.117188 C 5.167969 6.140625 4.976562 6.175781 4.785156 6.21875 C 4.667969 6.246094 4.550781 6.269531 4.433594 6.289062 C 3.609375 6.441406 2.792969 6.660156 2 6.933594 C 1.898438 6.96875 1.792969 7 1.6875 7.03125 C 1.550781 7.074219 1.417969 7.125 1.289062 7.183594 C 1.207031 7.210938 1.167969 7.203125 1.089844 7.175781 C 1.242188 7.085938 1.390625 7.003906 1.558594 6.945312 C 1.644531 6.914062 1.726562 6.871094 1.808594 6.832031 C 2.097656 6.699219 2.394531 6.601562 2.691406 6.5 C 2.777344 6.472656 2.863281 6.441406 2.945312 6.414062 C 3.183594 6.332031 3.421875 6.257812 3.667969 6.199219 C 3.75 6.183594 3.75 6.183594 3.84375 6.148438 C 3.929688 6.121094 4.011719 6.101562 4.105469 6.085938 C 4.222656 6.066406 4.335938 6.039062 4.449219 6.003906 C 4.585938 5.960938 4.714844 5.945312 4.855469 5.933594 C 4.957031 5.921875 5.050781 5.890625 5.152344 5.859375 C 5.445312 5.808594 5.742188 5.773438 6.039062 5.738281 C 6.109375 5.730469 6.179688 5.722656 6.25 5.714844 C 6.628906 5.667969 7.007812 5.628906 7.386719 5.636719 C 7.410156 5.636719 7.433594 5.636719 7.457031 5.636719 C 7.507812 5.636719 7.5625 5.636719 7.617188 5.636719 C 7.636719 5.574219 7.660156 5.511719 7.679688 5.445312 Z M 7.679688 5.445312 "/>
<path style=" stroke:none;fill-rule:nonzero;fill:rgb(100%,100%,100%);fill-opacity:1;" d="M 2.078125 4.578125 C 2.089844 4.578125 2.101562 4.578125 2.113281 4.578125 C 2.113281 4.644531 2.113281 4.707031 2.113281 4.773438 C 2.101562 4.773438 2.089844 4.773438 2.078125 4.773438 C 2.078125 4.707031 2.078125 4.644531 2.078125 4.578125 Z M 2.078125 4.578125 "/>
<path style=" stroke:none;fill-rule:nonzero;fill:rgb(100%,100%,100%);fill-opacity:1;" d="M 2.046875 4.835938 C 2.078125 4.964844 2.078125 4.964844 2.078125 4.964844 Z M 2.046875 4.835938 "/>
<path style=" stroke:none;fill-rule:nonzero;fill:rgb(100%,100%,100%);fill-opacity:1;" d="M 14.847656 7.496094 C 14.910156 7.527344 14.910156 7.527344 14.910156 7.527344 Z M 14.847656 7.496094 "/>
<path style=" stroke:none;fill-rule:nonzero;fill:rgb(100%,100%,100%);fill-opacity:1;" d="M 14.558594 7.367188 C 14.625 7.398438 14.625 7.398438 14.625 7.398438 Z M 14.558594 7.367188 "/>
</g>
</svg>
