<?xml version="1.0" encoding="UTF-8"?>
<svg version="1.1" xmlns="http://www.w3.org/2000/svg" width="500" height="281">
<path d="M0 0 C3.96610366 0.0031477 7.93144933 -0.0203571 11.89746094 -0.0456543 C29.98251789 -0.08957791 47.55464958 1.20828334 65.49902344 3.31567383 C68.66084732 3.66980325 71.82300546 4.02080357 74.98522949 4.37133789 C95.8299155 6.7797871 116.25418153 11.23994985 136.53466797 16.54516602 C139.55923403 17.33132402 142.58879124 18.09509502 145.62011719 18.85473633 C156.15442979 21.51360261 166.34459104 24.43442411 176.49902344 28.31567383 C178.02407573 28.87048433 179.55019377 29.42237071 181.07714844 29.97192383 C189.67353568 33.07703373 198.11703186 36.32692401 206.42089844 40.15161133 C209.78899861 41.42533449 212.9280977 41.92987029 216.49902344 42.31567383 C216.49902344 42.97567383 216.49902344 43.63567383 216.49902344 44.31567383 C217.46839844 44.60442383 218.43777344 44.89317383 219.43652344 45.19067383 C222.49902344 46.31567383 222.49902344 46.31567383 223.49902344 48.31567383 C225.491229 49.00528345 227.4930416 49.66722854 229.49902344 50.31567383 C231.77384353 51.38960052 234.02416841 52.51672958 236.24902344 53.69067383 C237.37824219 54.2759082 238.50746094 54.86114258 239.67089844 55.46411133 C242.46006684 57.29016909 243.43626739 58.22278124 244.49902344 61.31567383 C241.99771061 65.86708226 238.11004617 66.83159974 233.43652344 68.31567383 C231.88393167 68.83498957 230.33184386 69.35581451 228.78027344 69.87817383 C228.03519531 70.12567383 227.29011719 70.37317383 226.52246094 70.62817383 C224.12461022 71.44288759 221.77871734 72.35312839 219.43652344 73.31567383 C218.68371094 73.61989258 217.93089844 73.92411133 217.15527344 74.23754883 C215.66044033 74.84427521 214.16632932 75.4528122 212.67480469 76.06762695 C210.60130904 76.91587517 208.519775 77.74171017 206.43652344 78.56567383 C205.46283813 78.97172852 205.46283813 78.97172852 204.46948242 79.38598633 C198.01067239 81.90491413 191.89430893 82.55874171 185.39355469 79.81176758 C184.02408706 79.14328562 182.66351462 78.45633067 181.31152344 77.75317383 C180.57305176 77.38893311 179.83458008 77.02469238 179.07373047 76.64941406 C175.72506941 74.99023585 172.41064487 73.26960739 169.09667969 71.54223633 C152.71408935 63.08286241 135.41922484 56.91539658 117.69287109 51.93579102 C115.66822014 51.36349929 113.65125841 50.77078522 111.63574219 50.16723633 C98.59848781 46.30971724 85.33244485 43.82357313 71.94091797 41.58081055 C69.63198494 41.19201445 67.32535948 40.79109732 65.01855469 40.38989258 C46.55848453 37.23887294 28.27863433 37.1535717 9.59106445 37.18530273 C6.90647161 37.18985993 4.22194634 37.18986768 1.53735352 37.18530273 C-26.40263921 37.08133528 -26.40263921 37.08133528 -54.12597656 40.19067383 C-55.73388062 40.45847656 -55.73388062 40.45847656 -57.37426758 40.73168945 C-65.45336142 42.09376646 -73.49183544 43.58583773 -81.50097656 45.31567383 C-82.22897461 45.47036133 -82.95697266 45.62504883 -83.70703125 45.78442383 C-86.07714683 46.28899729 -88.44554835 46.80093874 -90.81347656 47.31567383 C-91.53075928 47.4697168 -92.24804199 47.62375977 -92.98706055 47.7824707 C-119.76312443 53.70743927 -146.7809581 64.14777397 -170.90722656 77.15161133 C-179.28190511 81.65617327 -184.54954873 82.53646828 -193.68847656 80.00317383 C-196.38696914 79.15737765 -198.76683052 78.17976809 -201.29003906 76.88989258 C-205.00722235 75.0674779 -208.77201775 73.76039323 -212.68847656 72.44067383 C-231.5563763 65.8947928 -231.5563763 65.8947928 -233.78613281 62.16723633 C-234.02203125 61.5562207 -234.25792969 60.94520508 -234.50097656 60.31567383 C-229.853978 54.6254715 -223.61063225 52.12843417 -217.06347656 49.06567383 C-215.84128633 48.48784005 -214.61911866 47.90995857 -213.39697266 47.33203125 C-188.64131005 35.69435172 -162.74593513 25.74342239 -136.20166016 19.00219727 C-134.15080216 18.48086182 -132.10200435 17.95141389 -130.05419922 17.41821289 C-104.35244891 10.7292973 -78.80951936 5.15580848 -52.30957031 2.68017578 C-49.48503612 2.40985337 -46.66831371 2.11440739 -43.84863281 1.80078125 C-29.23028912 0.24181803 -14.69384679 -0.02425617 0 0 Z " fill="#FEFEFE" transform="translate(247.5009765625,190.684326171875)"/>
<path d="M0 0 C2.67565086 0.71103208 5.34849449 1.39005504 8.0390625 2.0390625 C17.54184784 4.33991079 26.96115097 6.8590803 36.34765625 9.59765625 C37.83410645 10.03126465 37.83410645 10.03126465 39.35058594 10.47363281 C55.27724052 15.17126781 55.27724052 15.17126781 61.16015625 17.97265625 C64.10311724 19.31917566 67.01825287 20.47685621 70.09765625 21.47265625 C78.88131537 24.31977334 87.06032041 28.07856906 95.265625 32.2890625 C97.52157338 33.40795059 99.81261097 34.45878732 102.1328125 35.4375 C105.88109788 37.06881357 109.37250979 38.9358295 112.91015625 40.97265625 C113.52117187 41.31554687 114.1321875 41.6584375 114.76171875 42.01171875 C117.77448448 43.73517862 120.31651553 45.41047669 122.66015625 47.97265625 C123.38203125 48.38515625 124.10390625 48.79765625 124.84765625 49.22265625 C132.05282473 53.7058722 137.51322149 58.97476964 140.66015625 66.97265625 C141.25922392 69.68523467 141.47101371 72.18280385 141.66015625 74.97265625 C141.96767867 76.31217812 142.30139984 77.64593747 142.66015625 78.97265625 C144.74618518 87.48761055 145.95661351 96.11128993 147.16015625 104.78515625 C147.27065308 105.57888641 147.3811499 106.37261658 147.49499512 107.19039917 C150.78468633 131.03946553 151.95004303 154.92117909 152.66015625 178.97265625 C147.40942375 177.43392584 142.20459851 175.88420122 137.09765625 173.91015625 C132.99061359 172.38087661 128.98926548 171.32524343 124.69921875 170.46875 C122.66015625 169.97265625 122.66015625 169.97265625 119.28515625 168.47265625 C115.27606279 166.81372103 111.54494886 166.19843765 107.28515625 165.50390625 C103.85000503 164.80869707 100.87627237 163.35099173 97.66015625 161.97265625 C95.01229351 161.38995506 92.35878047 160.94366297 89.68359375 160.50390625 C86.4751853 159.94015489 83.32931872 159.22542643 80.16015625 158.47265625 C68.85439528 155.82493705 57.40449284 154.10938758 45.93701172 152.32958984 C43.87598944 152.00649156 41.81677937 151.67188505 39.7578125 151.3359375 C38.63246094 151.15417969 37.50710938 150.97242188 36.34765625 150.78515625 C35.38214844 150.62660156 34.41664063 150.46804687 33.421875 150.3046875 C30.57884683 149.90549421 30.57884683 149.90549421 27.3671875 149.984375 C24.66015625 149.97265625 24.66015625 149.97265625 23.66015625 148.97265625 C21.5502264 148.75485704 19.43368356 148.60062984 17.31640625 148.47265625 C16.00671875 148.39015625 14.69703125 148.30765625 13.34765625 148.22265625 C11.95184152 148.13901192 10.55600798 148.05568089 9.16015625 147.97265625 C-7.2297959 146.97744094 -7.2297959 146.97744094 -15.33984375 145.97265625 C-16.65984375 142.67265625 -17.97984375 139.37265625 -19.33984375 135.97265625 C-19.99984375 135.97265625 -20.65984375 135.97265625 -21.33984375 135.97265625 C-22.97660632 137.93268435 -22.97660632 137.93268435 -24.33984375 139.97265625 C-25.32984375 139.64265625 -26.31984375 139.31265625 -27.33984375 138.97265625 C-27.3629864 130.53225364 -27.38076867 122.09186423 -27.39165592 113.65143776 C-27.39688053 109.73245755 -27.40397055 105.81349899 -27.4152832 101.89453125 C-27.42612704 98.11443239 -27.43212377 94.33435439 -27.43472099 90.55424118 C-27.43657253 89.11010789 -27.44018799 87.66597578 -27.44557381 86.22185135 C-27.45280395 84.20341348 -27.45325198 82.18495472 -27.45336914 80.16650391 C-27.45558975 79.01622711 -27.45781036 77.86595032 -27.46009827 76.68081665 C-27.33984375 73.97265625 -27.33984375 73.97265625 -26.33984375 71.97265625 C-26.26632964 69.8787907 -26.25632171 67.7825502 -26.27734375 65.6875 C-26.28507812 64.43517578 -26.2928125 63.18285156 -26.30078125 61.89257812 C-26.31367188 60.57837891 -26.3265625 59.26417969 -26.33984375 57.91015625 C-26.36522284 55.31514464 -26.38629994 52.72008611 -26.40234375 50.125 C-26.41394531 48.96991943 -26.42554688 47.81483887 -26.4375 46.62475586 C-26.33984375 43.97265625 -26.33984375 43.97265625 -25.33984375 42.97265625 C-25.17943182 39.87180404 -25.08020973 36.79078046 -25.0234375 33.6875 C-25.0026564 32.75668106 -24.98187531 31.82586212 -24.96046448 30.86683655 C-24.89486444 27.88135443 -24.83603573 24.89578141 -24.77734375 21.91015625 C-24.73416845 19.89126649 -24.6905545 17.87238605 -24.64648438 15.85351562 C-24.53917246 10.89332328 -24.43793487 5.93303916 -24.33984375 0.97265625 C-22.91027753 0.47634975 -21.47893876 -0.01485297 -20.046875 -0.50390625 C-19.24999268 -0.77799316 -18.45311035 -1.05208008 -17.63208008 -1.33447266 C-11.48169567 -3.19354082 -6.00810516 -1.60067238 0 0 Z M-4.97233582 12.77738953 C-8.43636705 17.45256023 -8.00398658 21.41992512 -7.9074707 27.09692383 C-7.90820084 28.21931458 -7.90893097 29.34170532 -7.90968323 30.49810791 C-7.90620209 34.20496074 -7.86731292 37.91055439 -7.828125 41.6171875 C-7.81879883 44.18836277 -7.81168179 46.75954692 -7.8066864 49.33073425 C-7.78955176 55.40464428 -7.75015324 61.47803529 -7.69993895 67.55174989 C-7.64400153 74.46823624 -7.61654806 81.38474444 -7.59146178 88.30140078 C-7.53923538 102.52539474 -7.45132072 116.74900945 -7.33984375 130.97265625 C-4.20011796 131.464263 -1.05917384 131.94763099 2.08203125 132.4296875 C3.3966333 132.63567566 3.3966333 132.63567566 4.73779297 132.8458252 C12.70137398 134.06095148 20.61342928 134.64674133 28.66015625 134.97265625 C28.55105677 127.64263171 28.43815572 120.31267514 28.32081699 112.9827776 C28.26640194 109.57667719 28.21314336 106.17056813 28.1628418 102.7644043 C27.9247126 86.81562782 27.56285013 70.89883455 26.66015625 54.97265625 C27.32015625 54.97265625 27.98015625 54.97265625 28.66015625 54.97265625 C29.24796875 56.79796875 29.24796875 56.79796875 29.84765625 58.66015625 C32.61529497 66.93696261 35.57402808 75.13777772 39.625 82.87890625 C41.40875645 86.48680609 42.88979625 90.22210477 44.4140625 93.9453125 C45.28448038 96.05996408 46.17551563 98.16619459 47.08203125 100.265625 C48.57257504 103.73060614 49.97378069 107.22738438 51.35791016 110.73608398 C52.03657316 112.44111178 52.72835885 114.1409576 53.43115234 115.83618164 C55.26884734 120.29354367 56.90698412 124.67738028 58.1875 129.328125 C60.34133665 136.72301258 60.34133665 136.72301258 64.66015625 142.97265625 C71.41752931 146.48975951 79.15387295 147.34810094 86.66015625 147.97265625 C88.58820291 144.93757181 90.02249379 142.26606117 90.91015625 138.78515625 C92.29516459 133.9087727 94.05010652 129.24454686 95.91015625 124.53515625 C99.36695205 115.77750843 102.64715956 106.96266764 105.86914062 98.11621094 C106.68063558 95.91715979 107.52204097 93.73078452 108.36328125 91.54296875 C109.77396051 88.29244417 109.77396051 88.29244417 109.66015625 85.97265625 C110.32015625 85.97265625 110.98015625 85.97265625 111.66015625 85.97265625 C111.70503174 86.74303223 111.74990723 87.5134082 111.79614258 88.30712891 C113.1256521 110.88726696 114.81721983 133.42900114 116.66015625 155.97265625 C119.57096353 157.01076069 122.48953283 158.02503266 125.41015625 159.03515625 C126.64765625 159.47698242 126.64765625 159.47698242 127.91015625 159.92773438 C129.10898437 160.33862305 129.10898437 160.33862305 130.33203125 160.7578125 C131.06518555 161.0144165 131.79833984 161.27102051 132.55371094 161.53540039 C134.93380443 162.02946013 136.37590297 161.73332162 138.66015625 160.97265625 C138.66015625 160.31265625 138.66015625 159.65265625 138.66015625 158.97265625 C138.68335938 157.98007813 138.7065625 156.9875 138.73046875 155.96484375 C139.0976362 133.8930734 137.13547022 111.82221893 134.66015625 89.91015625 C134.5765686 89.15799835 134.49298096 88.40584045 134.40686035 87.63088989 C134.16550369 85.48213701 133.91478947 83.3347161 133.66015625 81.1875 C133.44359375 79.34853149 133.44359375 79.34853149 133.22265625 77.47241211 C132.21356089 70.53072303 132.21356089 70.53072303 128.57421875 64.79296875 C124.85875374 62.47204825 121.02754367 60.63946153 117.03515625 58.84765625 C115.52115474 58.15970624 114.00809416 57.46968078 112.49609375 56.77734375 C111.8314209 56.47812012 111.16674805 56.17889648 110.48193359 55.87060547 C108.66015625 54.97265625 108.66015625 54.97265625 105.66015625 52.97265625 C103.32816237 52.89360561 100.99183003 52.88466856 98.66015625 52.97265625 C94.31223097 61.34775823 90.788093 69.89314509 87.5 78.7265625 C78.14530476 103.74493348 78.14530476 103.74493348 74.66015625 108.97265625 C70.7230265 100.21312496 67.01750872 91.43508195 63.72021484 82.4140625 C62.52207018 79.16758064 61.28809047 76.02754515 59.66015625 72.97265625 C57.7116393 69.3151941 56.32462425 65.48383372 54.91015625 61.59765625 C52.38770358 54.67874155 49.52329959 47.9620366 46.46386719 41.26416016 C45.98288574 40.20720947 45.98288574 40.20720947 45.4921875 39.12890625 C45.17459473 38.44054687 44.85700195 37.7521875 44.52978516 37.04296875 C43.66015625 34.97265625 43.66015625 34.97265625 43.03662109 32.83984375 C41.53364062 27.73997674 39.59240183 25.5824534 34.92089844 23.03222656 C31.11233221 21.2472182 27.25379461 19.73705962 23.28515625 18.34765625 C22.45024658 18.04843262 21.61533691 17.74920898 20.75512695 17.44091797 C15.10894159 15.43468156 9.4590833 13.49253632 3.66015625 11.97265625 C2.56703125 11.64265625 1.47390625 11.31265625 0.34765625 10.97265625 C-2.50236084 10.71938525 -2.50236084 10.71938525 -4.97233582 12.77738953 Z " fill="#FDFDFD" transform="translate(286.33984375,24.02734375)"/>
<path d="M0 0 C2.125 0.9375 2.125 0.9375 4 2 C5.66121539 2.35951676 7.32778659 2.69571199 9 3 C9.02505615 3.99741211 9.0501123 4.99482422 9.07592773 6.02246094 C9.17124366 9.77988052 9.27114282 13.53716751 9.37231445 17.29443359 C9.41520031 18.90996159 9.45689992 20.52552158 9.49731445 22.14111328 C9.55616085 24.48479808 9.61950293 26.82832839 9.68359375 29.171875 C9.70866249 30.22734528 9.70866249 30.22734528 9.73423767 31.30413818 C9.84815073 35.30101703 10.11637766 39.24179598 10.51367188 43.22070312 C11.32076731 52.55940574 11.12294429 61.93158909 11.09765625 71.296875 C11.09578782 73.34238653 11.09436593 75.38789851 11.09336853 77.43341064 C11.08957677 82.77951321 11.07977555 88.12558799 11.06866455 93.47167969 C11.05837806 98.94205347 11.0538555 104.4124318 11.04882812 109.8828125 C11.03814983 120.58855378 11.02111422 131.29427457 11 142 C9.02 140.35 7.04 138.7 5 137 C2.69233055 140.56639824 1.28631545 143.96208801 0 148 C-0.75506836 148.05534912 -1.51013672 148.11069824 -2.28808594 148.16772461 C-5.77543554 148.42370864 -9.26271777 148.6805999 -12.75 148.9375 C-13.93722656 149.02451172 -15.12445313 149.11152344 -16.34765625 149.20117188 C-19.89877412 149.46313959 -23.4494018 149.73109005 -27 150 C-28.7315332 150.12592529 -28.7315332 150.12592529 -30.49804688 150.25439453 C-31.57634766 150.3367334 -32.65464844 150.41907227 -33.765625 150.50390625 C-34.72758789 150.57552979 -35.68955078 150.64715332 -36.68066406 150.72094727 C-39.02176982 150.87039814 -39.02176982 150.87039814 -41 152 C-42.78932578 152.1883405 -44.58360025 152.33074827 -46.37890625 152.44921875 C-52.62918208 152.92872002 -58.75539009 153.7904477 -64.9375 154.8125 C-66.01797607 154.98918213 -67.09845215 155.16586426 -68.21166992 155.34790039 C-85.34339953 158.18244807 -102.21480024 161.53686365 -119 166 C-120.17804199 166.31155029 -120.17804199 166.31155029 -121.37988281 166.62939453 C-138.2924401 171.07524649 -138.2924401 171.07524649 -154.66015625 177.15234375 C-158.51429193 178.54858322 -161.0124738 177.90040914 -165 177 C-167.05770181 174.93773566 -167.97328054 173.77908308 -168.07421875 170.8359375 C-167.94660156 170.02382812 -167.81898438 169.21171875 -167.6875 168.375 C-167.06015451 163.30901651 -166.94256377 158.40481812 -167 153.3125 C-167.08180508 142.8171293 -166.7952978 132.36183689 -165 122 C-164.81747101 120.314142 -164.64990177 118.62657178 -164.5 116.9375 C-163.67318436 108.34636872 -163.67318436 108.34636872 -162 105 C-161.67703058 102.37513943 -161.39056109 99.75564362 -161.125 97.125 C-160.43802419 90.80375742 -159.40382045 84.7797049 -157.7109375 78.63671875 C-157.05435017 76.20157343 -156.57733559 73.7918111 -156.125 71.3125 C-154.10752764 62.331494 -149.6178409 56.8902957 -142 52 C-140.65808594 51.08734375 -140.65808594 51.08734375 -139.2890625 50.15625 C-126.1588023 41.54828845 -112.29630055 34.44246393 -98 28 C-97.21455811 27.64083496 -96.42911621 27.28166992 -95.61987305 26.91162109 C-91.81182648 25.18658504 -88.11187036 23.58172987 -84.0625 22.5 C-79.71587557 21.26293582 -75.59002456 19.70623509 -71.421875 17.96484375 C-66.10357483 15.84610159 -60.61158776 14.24481352 -55.125 12.625 C-54.39047607 12.40803467 -53.65595215 12.19106934 -52.89916992 11.9675293 C-46.470908 10.09253375 -39.99872105 8.45730281 -33.48828125 6.89453125 C-30.06080704 6.06399284 -30.06080704 6.06399284 -27.02734375 4.984375 C-23.4828699 3.83184931 -19.90692538 3.11643801 -16.25 2.4375 C-2.52665212 -0.1306889 -2.52665212 -0.1306889 0 0 Z M-106 42 C-107.02480469 42.49371094 -108.04960938 42.98742187 -109.10546875 43.49609375 C-114.32700665 46.04644296 -119.25757844 48.64560426 -124 52 C-124.94875 52.53625 -125.8975 53.0725 -126.875 53.625 C-127.57625 54.07875 -128.2775 54.5325 -129 55 C-129 55.66 -129 56.32 -129 57 C-129.598125 57.268125 -130.19625 57.53625 -130.8125 57.8125 C-132.99847854 58.99917406 -134.41332594 60.09599113 -136 62 C-136 62.66 -136 63.32 -136 64 C-136.66 64 -137.32 64 -138 64 C-146.55801526 75.33358777 -148.84047168 89.48444314 -150.3125 103.25 C-150.39372101 103.96656769 -150.47494202 104.68313538 -150.55862427 105.42141724 C-154.10639413 129.77548801 -154.10639413 129.77548801 -146.9375 152.4375 C-141.22019974 157.42493215 -135.19921637 158.29434869 -127.75 157.9375 C-121.76945091 157.29705925 -115.88053794 156.33839049 -109.96484375 155.2578125 C-109.01042892 155.08363297 -108.0560141 154.90945343 -107.07267761 154.72999573 C-97.23875741 152.90449364 -87.4758613 150.78480611 -77.71850586 148.59057617 C-74.77639506 147.92938602 -71.83266847 147.27578381 -68.88867188 146.62304688 C-42.92967712 141.0918512 -42.92967712 141.0918512 -19 130 C-19 129.34 -19 128.68 -19 128 C-18.23945313 127.75378906 -17.47890625 127.50757813 -16.6953125 127.25390625 C-11.61267751 124.88937606 -9.20013631 119.70146512 -6.98828125 114.72265625 C-3.28762646 104.45108272 -3.88126082 93.75249279 -4 83 C-8.03642364 83.62664172 -12.07059901 84.26614943 -16.10327148 84.91650391 C-17.46895027 85.13502531 -18.835151 85.35031487 -20.2019043 85.56201172 C-29.41810143 86.99240348 -38.15290765 88.99023259 -47 92 C-47.10151367 92.86987549 -47.20302734 93.73975098 -47.30761719 94.63598633 C-47.88674857 99.28801917 -48.37036178 103.0250763 -50.9375 107 C-64.84859246 116.08479507 -85.52021102 119.31619346 -101.6875 122.125 C-102.80705078 122.33684937 -102.80705078 122.33684937 -103.94921875 122.55297852 C-109.32940507 123.38806948 -112.32181426 122.4402594 -117 120 C-118.40124735 104.26098953 -118.82514213 89.00484082 -113 74 C-111.3125 72.9375 -111.3125 72.9375 -109 72 C-107.6078125 70.88625 -107.6078125 70.88625 -106.1875 69.75 C-95.19061012 61.73933453 -80.0154243 58.57350675 -66.9765625 55.703125 C-64.62876338 55.14852678 -62.45249441 54.49421034 -60.1875 53.6875 C-55.86328941 52.75482713 -53.1907812 53.67659541 -49 55 C-48.505 59.95 -48.505 59.95 -48 65 C-42.30698081 64.46292272 -37.11227735 63.26316362 -31.6171875 61.6953125 C-28.43645061 60.85028091 -25.26380035 60.39964902 -22 60 C-19.62695723 59.49662729 -17.47967413 58.81499525 -15.1875 58 C-11.7929246 56.93503517 -8.52109218 56.46670098 -5 56 C-4.62884574 45.04407617 -4.94156321 35.72856095 -9.5625 25.5625 C-14.37439317 20.50384308 -20.50374897 18.79197951 -27.375 18.5 C-53.63539101 19.50872181 -82.70500477 30.44538514 -106 42 Z " fill="#FDFDFD" transform="translate(234,22)"/>
<path d="M0 0 C0.92619141 0.04302246 1.85238281 0.08604492 2.80664062 0.13037109 C21.96753253 1.25450376 39.84177221 7.3778863 57.93988037 13.32507324 C60.99366668 14.32554043 64.05393592 15.30574858 67.11328125 16.2890625 C77.91785955 19.79378673 88.53992797 23.56353881 99 28 C100.22396484 28.51264404 100.22396484 28.51264404 101.47265625 29.03564453 C111.80711401 33.36611327 122.12171621 37.69042246 132 43 C133.11375 43.59167969 134.2275 44.18335938 135.375 44.79296875 C151.87694882 53.76156754 168.34927546 65.20882304 174.12792969 83.83666992 C177.16832106 94.29994637 178.60322746 105.2141641 180 116 C180.10820068 116.80719482 180.21640137 117.61438965 180.32788086 118.44604492 C181.45903531 128.47123698 181.10723587 138.61517604 181.0625 148.6875 C181.05747557 150.66080616 181.05291433 152.63411355 181.04882812 154.60742188 C181.03789588 159.40497885 181.0206831 164.20247556 181 169 C180.34 169 179.68 169 179 169 C178.88406494 167.91992676 178.76812988 166.83985352 178.64868164 165.72705078 C178.21831964 161.72727542 177.78290547 157.72806358 177.34594727 153.72900391 C177.15738853 151.99673215 176.97020795 150.26430981 176.78442383 148.53173828 C176.51744301 146.04418904 176.245542 143.55722001 175.97265625 141.0703125 C175.89032242 140.29317902 175.80798859 139.51604553 175.72315979 138.71536255 C175.33708564 134.73106899 175.33708564 134.73106899 174 131 C173.68879716 128.44122107 173.49035334 125.88148388 173.28125 123.3125 C173.12863953 120.97731545 173.12863953 120.97731545 172 119 C171.79164814 116.98303826 171.63252411 114.96085921 171.5 112.9375 C171.12655699 107.60259985 170.6300231 102.3101947 170 97 C169.34 97 168.68 97 168 97 C167.98582031 96.41734375 167.97164063 95.8346875 167.95703125 95.234375 C167.40139913 85.68350934 164.5186091 76.25020288 157.21875 69.71875 C148.86564768 63.24803693 139.9960262 56.63491862 130 53 C130 52.34 130 51.68 130 51 C128.78763672 50.63648437 128.78763672 50.63648437 127.55078125 50.265625 C123.25438736 48.73423708 119.27449615 46.76285498 115.1875 44.75 C106.94420288 40.76689761 98.63616285 37.5391572 89.95507812 34.65869141 C86.92949317 33.63933224 83.93614371 32.53315828 80.9375 31.4375 C66.94095917 26.43529984 52.62484296 22.10818622 38.19580078 18.54663086 C35.79716688 17.94950596 33.40487363 17.32963668 31.01171875 16.7109375 C16.09230018 12.46873264 16.09230018 12.46873264 1 14 C-1.04296875 12.78515625 -1.04296875 12.78515625 -3.1875 11.0625 C-3.90292969 10.49660156 -4.61835938 9.93070313 -5.35546875 9.34765625 C-5.89816406 8.90292969 -6.44085938 8.45820313 -7 8 C-7.03758423 9.34239746 -7.03758423 9.34239746 -7.07592773 10.71191406 C-7.19422865 14.89134328 -7.31487287 19.07069569 -7.4375 23.25 C-7.45956512 24.00241974 -7.48163025 24.75483948 -7.50436401 25.53005981 C-7.79257457 35.25394843 -8.12159221 44.97048706 -8.69506836 54.68261719 C-9.00572478 60.12566768 -9.04444583 65.5486837 -9 71 C-10.32 71.33 -11.64 71.66 -13 72 C-13.66 71.01 -14.32 70.02 -15 69 C-15.33 69 -15.66 69 -16 69 C-15.98259766 67.71029297 -15.98259766 67.71029297 -15.96484375 66.39453125 C-15.91175998 59.44055796 -16.11819019 52.60636327 -16.7109375 45.6796875 C-17.66971456 33.47471469 -18.20106315 21.2425121 -18 9 C-18.86109375 9.66257812 -19.7221875 10.32515625 -20.609375 11.0078125 C-24.46444876 13.2728904 -25.88845645 13.27808104 -30.25 12.875 C-42.16637952 12.52174764 -53.53971037 16.06190191 -65 19 C-66.48174514 19.37119631 -67.96351207 19.74230568 -69.4453125 20.11328125 C-95.12467291 26.73757486 -120.92243481 35.20058354 -144.5625 47.25390625 C-146.71708445 48.34833722 -148.88243872 49.42208485 -151.0625 50.46484375 C-166.53220856 57.89112671 -184.79877171 67.68059658 -191.19140625 84.37109375 C-192.17184528 87.5587047 -192.56449383 90.57212349 -192.7265625 93.89453125 C-193 96 -193 96 -193.92285156 98.09423828 C-195.32497207 101.87665857 -195.89880096 105.6207201 -196.5078125 109.59765625 C-196.63815887 110.42776718 -196.76850525 111.25787811 -196.90280151 112.11314392 C-197.17638141 113.86849321 -197.44683263 115.62433262 -197.71435547 117.38061523 C-198.12017467 120.03098617 -198.54186651 122.67849231 -198.96484375 125.32617188 C-200.2348774 133.46621844 -201.35593985 141.34425936 -201.00952148 149.61206055 C-200.99660099 152.85245421 -201.68344978 155.7644293 -202.48828125 158.88671875 C-203.2971561 162.22718663 -203.62758817 165.58622486 -204 169 C-204.66 169 -205.32 169 -206 169 C-206.05120102 162.5445499 -206.08594122 156.0891532 -206.10986328 149.63354492 C-206.11984844 147.44276981 -206.13344125 145.25200777 -206.15087891 143.0612793 C-206.24052872 131.49908968 -206.30759717 120.36776997 -204 109 C-203.69630557 107.13761006 -203.39804183 105.27432566 -203.10546875 103.41015625 C-197.90246013 72.54537778 -197.90246013 72.54537778 -187.875 64.3125 C-184.9920527 62.01248009 -184.9920527 62.01248009 -183 59 C-181.3533574 57.96735973 -179.68075327 56.97613842 -178 56 C-176.78022347 55.2014953 -175.56577803 54.39481412 -174.35546875 53.58203125 C-164.88646732 47.26860279 -155.33526154 41.76197176 -145 37 C-144.37867188 36.71205566 -143.75734375 36.42411133 -143.1171875 36.12744141 C-121.36910871 26.13492717 -98.79446265 18.22171755 -76 11 C-74.78521973 10.61360352 -73.57043945 10.22720703 -72.31884766 9.82910156 C-48.31153022 2.29293946 -25.17168352 -1.21354538 0 0 Z M-11 65 C-10 69 -10 69 -10 69 Z " fill="#FCFCFC" transform="translate(265,5)"/>
<path d="M0 0 C2 0 2 0 4.5625 2.4375 C5.7690625 3.7059375 5.7690625 3.7059375 7 5 C8.53971828 6.53971828 9.98485671 6.31779707 12.125 6.4375 C16.13522267 6.4375 17.93762357 5.6489244 20.875 2.9375 C21.40867187 2.36902344 21.94234375 1.80054688 22.4921875 1.21484375 C22.98976563 0.81394531 23.48734375 0.41304687 24 0 C24.99 0.33 25.98 0.66 27 1 C27.75 3 27.75 3 28 5 C27.67 5.33 27.34 5.66 27 6 C28.36705078 5.96519531 28.36705078 5.96519531 29.76171875 5.9296875 C40.39764555 5.78152534 50.77615714 6.59562805 61.34619141 7.7265625 C63.89978665 7.98967443 66.45388772 8.21985513 69.01171875 8.4375 C80.56189441 9.44405126 91.82963275 11.27324981 103.20898438 13.47216797 C105.99465402 13.99898898 108.78422973 14.49150715 111.578125 14.97265625 C123.88337489 17.10137151 135.93496891 19.78365879 148 23 C148.73605469 23.19174805 149.47210938 23.38349609 150.23046875 23.58105469 C178.07351336 30.84174092 205.37993653 40.84375119 231 54 C230.34 54.66 229.68 55.32 229 56 C228.071875 55.61070312 227.14375 55.22140625 226.1875 54.8203125 C197.34515433 43.02950693 165.66624621 33.40081055 135 28 C132.60304775 27.52646226 130.20724828 27.04706035 127.8125 26.5625 C126.5646875 26.31628906 125.316875 26.07007813 124.03125 25.81640625 C121.21051823 25.25407163 118.40159756 24.65070053 115.59375 24.02734375 C103.25742372 21.34564521 90.93256007 19.89694898 78.375 18.65625 C73.75746883 18.1976961 69.20326917 17.62337092 64.625 16.875 C59.09108102 16.03911845 53.59987615 15.70089545 48.015625 15.45703125 C47.05365204 15.41462814 46.09167908 15.37222504 45.10055542 15.32853699 C34.44273596 14.89142582 23.79065727 14.80159802 13.125 14.8125 C11.60510468 14.81290787 11.60510468 14.81290787 10.05450439 14.81332397 C-14.05820743 14.84285707 -37.91628192 15.79730996 -61.75830078 19.65625 C-65.30696577 20.2004147 -68.87107629 20.59256886 -72.4375 21 C-78.54412341 21.74561194 -84.47102366 22.86506279 -90.46875 24.22265625 C-94.13366875 25.02942487 -97.80673769 25.71066318 -101.5 26.375 C-127.26355486 31.13057642 -152.6959259 37.88728133 -177.44921875 46.45703125 C-180.69258759 47.57930176 -183.95276728 48.59280349 -187.24609375 49.55859375 C-191.58623775 50.84021027 -195.64803699 52.47371044 -199.7734375 54.328125 C-202.29087941 55.08777414 -203.55518591 54.8707557 -206 54 C-201.18830435 51.18203935 -196.50280239 48.69940181 -191.23828125 46.859375 C-188.55416516 45.82882432 -186.02201515 44.57257816 -183.4375 43.3125 C-174.50910241 39.13831876 -165.17902364 36.0991274 -155.84765625 32.95947266 C-153.20749745 32.06991298 -150.57196579 31.16797079 -147.9375 30.26171875 C-140.48210822 27.71405458 -133.0744126 25.37855616 -125.39453125 23.58203125 C-122.86304288 23.00701461 -122.86304288 23.00701461 -119.9375 21.9375 C-117.18481236 21.05898267 -114.59391104 20.54640118 -111.75 20.0625 C-108.02789112 19.42787792 -104.52816397 18.60234532 -100.9375 17.4375 C-96.70211574 16.09293357 -92.70666675 15.58410733 -88.2890625 15.2421875 C-85.07251964 14.90187068 -82.10552009 13.89481087 -79 13 C-69.81288904 11.3490029 -60.52993899 10.27734677 -51.26196289 9.19506836 C-49.0680198 8.9381464 -46.87483563 8.67533195 -44.68164062 8.41210938 C-32.86466628 7.01112532 -21.04024122 5.78291104 -9.125 5.9375 C-8.42503906 5.94201172 -7.72507813 5.94652344 -7.00390625 5.95117188 C-5.33589722 5.96259659 -3.66793423 5.98050466 -2 6 C-1.34 4.02 -0.68 2.04 0 0 Z " fill="#FCFCFC" transform="translate(240,170)"/>
<path d="M0 0 C0.33 0 0.66 0 1 0 C1 1.98 1 3.96 1 6 C0.67 6 0.34 6 0 6 C0 4.02 0 2.04 0 0 Z " fill="#FFFFFF" transform="translate(65,143)"/>
<path d="M0 0 C1 4 1 4 1 4 Z " fill="#FFFFFF" transform="translate(64,151)"/>
<path d="M0 0 C2 1 2 1 2 1 Z " fill="#FFFFFF" transform="translate(464,234)"/>
<path d="M0 0 C2 1 2 1 2 1 Z " fill="#FFFFFF" transform="translate(455,230)"/>
<path d="" fill="#FFFFFF" transform="translate(0,0)"/>
<path d="" fill="#FFFFFF" transform="translate(0,0)"/>
<path d="" fill="#FFFFFF" transform="translate(0,0)"/>
<path d="" fill="#FFFFFF" transform="translate(0,0)"/>
<path d="" fill="#FFFFFF" transform="translate(0,0)"/>
<path d="" fill="#FFFFFF" transform="translate(0,0)"/>
</svg>
